<svg width="20" height="20" viewBox="0 0 20 20" fill="none" xmlns="http://www.w3.org/2000/svg">
<g clip-path="url(#clip0_96_9236)">
<path fill-rule="evenodd" clip-rule="evenodd" d="M6.25 2.5H13.75C15.8167 2.5 17.5 4.175 17.5 6.25V13.7583C17.5 15.825 15.825 17.5083 13.75 17.5083H6.25C4.18333 17.5083 2.5 15.8333 2.5 13.7583V6.25C2.5 4.175 4.175 2.5 6.25 2.5Z" stroke="white" stroke-width="2" stroke-linecap="round" stroke-linejoin="round"/>
<path d="M6.7666 9.25V13.75" stroke="white" stroke-width="2" stroke-linecap="round" stroke-linejoin="round"/>
<path d="M9.7666 13.75V11.125C9.7666 10.0917 10.6083 9.25 11.6416 9.25C12.6749 9.25 13.5166 10.0917 13.5166 11.125V13.75" stroke="white" stroke-width="2" stroke-linecap="round" stroke-linejoin="round"/>
<path d="M6.76634 6.53333C6.66634 6.53333 6.58301 6.61666 6.58301 6.72499C6.58301 6.82499 6.66634 6.90833 6.77467 6.90833C6.87467 6.90833 6.95801 6.82499 6.95801 6.72499C6.95801 6.62499 6.87467 6.54166 6.77467 6.54166" stroke="white" stroke-width="2" stroke-linecap="round" stroke-linejoin="round"/>
</g>
<defs>
<clipPath id="clip0_96_9236">
<rect width="20" height="20" fill="white"/>
</clipPath>
</defs>
</svg>
