<svg xmlns="http://www.w3.org/2000/svg" width="20" height="20" viewBox="0 0 20 20" fill="none">
  <g clip-path="url(#clip0_391_2016)">
    <path d="M9.0496 10.95C8.0746 9.97499 7.34127 8.88332 6.8496 7.77499C6.7496 7.54166 6.80793 7.26666 6.99127 7.08332L7.6746 6.39999C8.23293 5.84166 8.23293 5.04999 7.74127 4.55832L6.76627 3.58333C6.11627 2.93333 5.05793 2.93333 4.40793 3.58333L3.86627 4.12499C3.2496 4.74166 2.99127 5.63333 3.15793 6.51666C3.56627 8.69166 4.83293 11.075 6.8746 13.1167C8.91627 15.1583 11.2996 16.425 13.4746 16.8333C14.3579 17 15.2496 16.7417 15.8663 16.125L16.4079 15.5833C17.0579 14.9333 17.0579 13.875 16.4079 13.225L15.4329 12.25C14.9413 11.7583 14.1496 11.7583 13.6663 12.25L12.9163 13C12.7329 13.1833 12.4579 13.2417 12.2246 13.1417C11.1163 12.65 10.0246 11.9167 9.0496 10.9417V10.95Z" stroke="white" stroke-width="2" stroke-linecap="round" stroke-linejoin="round"/>
  </g>
  <defs>
    <clipPath id="clip0_391_2016">
      <rect width="20" height="20" fill="white"/>
    </clipPath>
  </defs>
</svg>
