<svg xmlns="http://www.w3.org/2000/svg" width="20" height="20" viewBox="0 0 20 20" fill="none">
  <g clip-path="url(#clip0_75_4210)">
    <path
      d="M9.04996 10.95C8.07496 9.97499 7.34163 8.88332 6.84997 7.77499C6.74997 7.54166 6.8083 7.26666 6.99163 7.08332L7.67497 6.39999C8.2333 5.84166 8.2333 5.04999 7.74163 4.55832L6.76663 3.58333C6.11663 2.93333 5.0583 2.93333 4.4083 3.58333L3.86663 4.12499C3.24997 4.74166 2.99163 5.63333 3.1583 6.51666C3.56663 8.69166 4.8333 11.075 6.87497 13.1167C8.91663 15.1583 11.3 16.425 13.475 16.8333C14.3583 17 15.25 16.7417 15.8666 16.125L16.4083 15.5833C17.0583 14.9333 17.0583 13.875 16.4083 13.225L15.4333 12.25C14.9416 11.7583 14.15 11.7583 13.6666 12.25L12.9166 13C12.7333 13.1833 12.4583 13.2417 12.225 13.1417C11.1166 12.65 10.025 11.9167 9.04996 10.9417V10.95Z"
      stroke="black" stroke-width="2" stroke-linecap="round" stroke-linejoin="round" />
  </g>
  <defs>
    <clipPath id="clip0_75_4210">
      <rect width="20" height="20" fill="white" />
    </clipPath>
  </defs>
</svg>
