<svg width="229" height="70" viewBox="0 0 229 70" fill="none" xmlns="http://www.w3.org/2000/svg">
<path id="logo" fill-rule="evenodd" clip-rule="evenodd" d="M34.9804 0C25.7647 0 17.0588 3.56863 10.4706 10.0392C3.92157 16.4706 0.196078 25.0588 0 34.2745V34.3137V34.7059V34.7451V34.8235V34.9804V35.5294V35.6863C0.196078 44.8627 3.88235 53.4902 10.4706 59.9608C17.0588 66.4314 25.7647 70 34.9804 70C54.1961 70 69.8431 54.4314 69.9608 35.2157V35.0196C69.9608 15.6863 54.2745 0 34.9804 0ZM14.549 16.7451C14.6667 16.6667 14.7843 16.5882 14.9412 16.5098C14.9804 16.4706 15.0294 16.4412 15.0784 16.4118C15.1275 16.3824 15.1765 16.3529 15.2157 16.3137C15.3333 16.2353 15.451 16.1569 15.5686 16.1176C15.6275 16.0784 15.6863 16.049 15.7451 16.0196L15.7451 16.0196C15.8039 15.9902 15.8628 15.9608 15.9216 15.9216L17.2157 15.2157C17.2367 15.2052 17.2549 15.1947 17.2718 15.1849L17.2718 15.1849C17.318 15.1583 17.3544 15.1373 17.4118 15.1373C17.549 15.0784 17.6961 15.0098 17.8431 14.9412C17.9902 14.8726 18.1373 14.8039 18.2745 14.7451C18.3333 14.7255 18.402 14.6961 18.4706 14.6667C18.5392 14.6373 18.6078 14.6078 18.6667 14.5882C18.7451 14.549 18.8235 14.5098 18.902 14.5098C18.9608 14.4902 19.0294 14.4608 19.098 14.4314C19.1667 14.402 19.2353 14.3725 19.2941 14.3529C19.3333 14.3333 19.3725 14.3235 19.4118 14.3137C19.451 14.3039 19.4902 14.2941 19.5294 14.2745C19.7255 14.1961 19.9608 14.1176 20.1569 14.0784C20.1961 14.0588 20.2353 14.049 20.2745 14.0392C20.3137 14.0294 20.3529 14.0196 20.3922 14C20.4706 13.9804 20.5588 13.951 20.6471 13.9216C20.7353 13.8922 20.8235 13.8627 20.902 13.8431C20.946 13.8211 20.99 13.8115 21.041 13.8003C21.0808 13.7916 21.1249 13.7819 21.1765 13.7647C21.2353 13.7451 21.2843 13.7353 21.3333 13.7255C21.3824 13.7157 21.4314 13.7059 21.4902 13.6863C21.6078 13.6471 21.7647 13.6078 21.8824 13.6078C21.9412 13.5882 22 13.5784 22.0588 13.5686C22.1176 13.5588 22.1765 13.549 22.2353 13.5294C22.3922 13.4902 22.549 13.451 22.7059 13.451C22.7598 13.433 22.8138 13.4233 22.864 13.4142C22.9232 13.4035 22.9771 13.3938 23.0196 13.3725H23.1373C23.2009 13.3513 23.2646 13.3416 23.3346 13.3309C23.3938 13.3218 23.4575 13.3121 23.5294 13.2941H23.5686C23.6274 13.2941 23.6863 13.2843 23.7451 13.2745C23.8039 13.2647 23.8627 13.2549 23.9216 13.2549C24.1961 13.2157 24.4706 13.1765 24.7451 13.1765C24.8039 13.1765 24.8627 13.1667 24.9216 13.1569C24.9804 13.1471 25.0392 13.1373 25.098 13.1373H25.2157C25.3333 13.1373 25.451 13.1373 25.5294 13.098H25.7255C25.9216 13.098 26.0784 13.098 26.2745 13.0588H26.3529H26.5098H26.8627C38.9804 13.0588 48.8235 22.902 48.8235 35.0196C48.8235 38.1569 46.2745 40.7059 43.1373 40.7059C40 40.7059 37.451 38.1569 37.451 35.0196V34.7451C37.3726 29.8039 35.4118 25.1765 31.8824 21.7255C28.3529 18.2353 23.6863 16.3137 18.7451 16.3137H18.3137H18.2353H17.8039C17.6471 16.3137 17.4902 16.3137 17.3333 16.3529C17.2549 16.3529 17.1765 16.3627 17.098 16.3725C17.0196 16.3824 16.9412 16.3922 16.8627 16.3922C16.8081 16.3922 16.7535 16.4006 16.695 16.4097C16.6275 16.4201 16.5547 16.4314 16.4706 16.4314H16.3137C16.2591 16.4314 16.2045 16.4398 16.146 16.4489C16.0784 16.4593 16.0056 16.4706 15.9216 16.4706C15.8039 16.4706 15.6471 16.5098 15.5294 16.549C15.4902 16.549 15.4412 16.5588 15.3922 16.5686C15.3431 16.5784 15.2941 16.5882 15.2549 16.5882C15.098 16.6275 14.9412 16.6667 14.7451 16.6667C14.7231 16.6887 14.6887 16.6983 14.6489 16.7095C14.6178 16.7183 14.5834 16.7279 14.549 16.7451L14.549 16.7451ZM10.0392 24.2353C10.1569 24.1373 10.2745 24.049 10.3922 23.9608C10.5098 23.8726 10.6275 23.7843 10.7451 23.6863C10.7843 23.6667 10.8235 23.6373 10.8627 23.6078C10.902 23.5784 10.9412 23.549 10.9804 23.5294C11.0486 23.4839 11.1135 23.4384 11.1771 23.3939L11.1774 23.3937L11.1776 23.3936L11.1777 23.3935L11.178 23.3933L11.1782 23.3931L11.1783 23.3931C11.3335 23.2843 11.4804 23.1814 11.6471 23.098C11.6863 23.0784 11.7157 23.0588 11.7451 23.0392L11.7451 23.0392C11.7745 23.0196 11.8039 23 11.8431 22.9804C11.8824 22.9608 11.9118 22.9412 11.9412 22.9216C11.9706 22.902 12 22.8824 12.0392 22.8627L12.2745 22.7451L12.5098 22.6275C12.5336 22.6156 12.5609 22.6001 12.5907 22.5832L12.5908 22.5832L12.5908 22.5832L12.5908 22.5832L12.5908 22.5832L12.5908 22.5832L12.5909 22.5831L12.5909 22.5831L12.591 22.5831L12.5911 22.583C12.6597 22.5442 12.7416 22.4979 12.8235 22.4706C12.8824 22.451 12.9412 22.4216 13 22.3922C13.0588 22.3627 13.1176 22.3333 13.1765 22.3137L13.1765 22.3137C13.2549 22.2745 13.3333 22.2353 13.451 22.1961L13.6863 22.0784C13.7025 22.0784 13.7188 22.0717 13.7378 22.0638C13.7647 22.0527 13.7972 22.0392 13.8431 22.0392C13.8824 22.0196 13.9216 22.0098 13.9608 22C14 21.9902 14.0392 21.9804 14.0784 21.9608C14.1569 21.9216 14.2353 21.8824 14.3137 21.8824C14.3529 21.8431 14.4314 21.8431 14.4706 21.8431C14.5098 21.8235 14.549 21.8137 14.5882 21.8039C14.6274 21.7941 14.6667 21.7843 14.7059 21.7647C14.7304 21.7565 14.7533 21.7483 14.7751 21.7405C14.858 21.7108 14.9265 21.6863 15.0196 21.6863C15.0621 21.665 15.116 21.6553 15.1753 21.6446C15.2254 21.6356 15.2794 21.6258 15.3333 21.6078C15.451 21.5686 15.5686 21.5294 15.6863 21.5294C15.7402 21.5114 15.7942 21.5017 15.8444 21.4926C15.9036 21.4819 15.9575 21.4722 16 21.451C16.0588 21.4314 16.1275 21.4216 16.1961 21.4118C16.2647 21.402 16.3333 21.3922 16.3922 21.3725C16.4314 21.3725 16.4804 21.3627 16.5294 21.3529C16.5784 21.3431 16.6275 21.3333 16.6667 21.3333C16.7019 21.3333 16.7372 21.3254 16.776 21.3167C16.8235 21.306 16.8764 21.2941 16.9412 21.2941C16.9804 21.2941 17.0196 21.2843 17.0588 21.2745C17.098 21.2647 17.1373 21.2549 17.1765 21.2549C17.2157 21.2549 17.2647 21.2451 17.3137 21.2353C17.3627 21.2255 17.4118 21.2157 17.451 21.2157H17.5294C17.6078 21.2157 17.6863 21.2157 17.8039 21.1765C17.902 21.1765 18 21.1667 18.098 21.1569C18.1961 21.1471 18.2941 21.1373 18.3922 21.1373H18.7451C26.2745 21.1373 32.4706 27.2549 32.549 34.7843V34.8627V35.0588V35.098C32.4706 38.1569 29.9216 40.6275 26.8627 40.6275C23.7255 40.6275 21.1765 38.0784 21.1765 34.9412C21.1765 29.098 16.4314 24.3529 10.5882 24.3529H10.3137H10.0784H9.80392C9.88235 24.3529 9.96078 24.3137 10.0392 24.2353ZM4.90196 35.1373V35.0588V34.9412V34.8627V34.8235C4.98039 31.7647 7.52941 29.2941 10.5882 29.2941C13.7255 29.2941 16.2745 31.8431 16.2745 34.9804C16.2745 40.8235 21.0196 45.5686 26.8627 45.5686H27.1373H27.3726H27.6471C27.3333 45.8431 27.0196 46.0784 26.7059 46.3137L26.7059 46.3137C26.6667 46.3333 26.6275 46.3627 26.5883 46.3921L26.5882 46.3922C26.549 46.4216 26.5098 46.451 26.4706 46.4706C26.4118 46.5098 26.3627 46.5392 26.3137 46.5686C26.2647 46.598 26.2157 46.6275 26.1569 46.6667C26.1176 46.6863 26.0882 46.7059 26.0588 46.7255C26.0294 46.7451 26 46.7647 25.9608 46.7843H25.9216L25.9215 46.7843C25.8431 46.8235 25.7647 46.8628 25.6863 46.9412C25.6078 46.9804 25.5294 47.0196 25.451 47.098L25.4509 47.0981C25.3725 47.1373 25.2941 47.1765 25.1765 47.2549C25.1268 47.2797 25.0732 47.3085 25.0169 47.3387C24.8955 47.4039 24.7615 47.4758 24.6275 47.5294L24.1569 47.7647L24.1568 47.7647C24.0392 47.8039 23.9216 47.8431 23.8039 47.9216C23.7255 47.9608 23.6471 48 23.5686 48L23.2157 48.1176C23.1765 48.1373 23.1471 48.1471 23.1176 48.1569C23.0882 48.1667 23.0588 48.1765 23.0196 48.1961L22.9703 48.2127L22.9227 48.229L22.8797 48.2438C22.7026 48.3049 22.5402 48.361 22.3529 48.3922C22.3137 48.4118 22.2745 48.4216 22.2353 48.4314C22.1961 48.4412 22.1569 48.451 22.1176 48.4706C22.0392 48.4902 21.9706 48.5098 21.902 48.5294L21.9017 48.5295C21.8331 48.5491 21.7646 48.5687 21.6863 48.5882C21.6471 48.5882 21.6176 48.598 21.5882 48.6078C21.5588 48.6176 21.5294 48.6275 21.4902 48.6275C21.4314 48.6471 21.3627 48.6569 21.2941 48.6667C21.2255 48.6765 21.1569 48.6863 21.098 48.7059C21.0588 48.7059 21.0098 48.7157 20.9609 48.7255L20.9608 48.7255C20.9118 48.7353 20.8627 48.7451 20.8235 48.7451C20.7883 48.7451 20.753 48.753 20.7142 48.7617C20.6667 48.7724 20.6138 48.7843 20.549 48.7843C20.5098 48.7843 20.4706 48.7941 20.4314 48.8039C20.3922 48.8137 20.3529 48.8235 20.3137 48.8235C20.2745 48.8235 20.2255 48.8333 20.1765 48.8431C20.1275 48.8529 20.0784 48.8627 20.0392 48.8627H19.9608C19.8824 48.8627 19.8039 48.8627 19.6863 48.902C19.5882 48.902 19.4902 48.9118 19.3922 48.9216C19.2941 48.9314 19.1961 48.9412 19.098 48.9412H18.7451C11.1765 48.7843 4.98039 42.6667 4.90196 35.1373ZM14.7843 53.2549C14.8627 53.2745 14.951 53.2941 15.0392 53.3137C15.1275 53.3333 15.2157 53.3529 15.2941 53.3726H15.3726C15.4118 53.3726 15.451 53.3725 15.4902 53.4118H15.5294C15.5686 53.4118 15.6078 53.4216 15.6471 53.4314C15.6863 53.4412 15.7255 53.451 15.7647 53.451C15.8039 53.451 15.8824 53.451 15.9216 53.4902H15.9608H16H16.0392C16.0784 53.4902 16.1176 53.5 16.1569 53.5098C16.1961 53.5196 16.2353 53.5294 16.2745 53.5294H16.3137H16.4314H16.4706C16.5294 53.5294 16.5882 53.5392 16.6471 53.549L16.6471 53.549C16.7059 53.5588 16.7647 53.5686 16.8235 53.5686H17.0588H17.2941H17.3333C17.4118 53.5686 17.4902 53.5784 17.5686 53.5882C17.6471 53.598 17.7255 53.6078 17.8039 53.6078H18.1176H18.1961H18.2745H18.3529H18.7059C23.6471 53.6078 28.3137 51.6863 31.8431 48.1961C32.1961 47.8431 32.5098 47.5294 32.8235 47.1765C32.8627 47.1176 32.9118 47.0686 32.9608 47.0196C33.0098 46.9706 33.0588 46.9216 33.098 46.8627C33.1373 46.8235 33.1765 46.7745 33.2157 46.7255C33.2549 46.6765 33.2941 46.6275 33.3333 46.5882C33.4118 46.5098 33.4902 46.4314 33.5294 46.3137L33.8824 45.8431C33.9398 45.7857 33.9762 45.7283 34.0223 45.6555C34.0392 45.6289 34.0574 45.6002 34.0784 45.5686L34.1569 45.4902C34.1765 45.451 34.2059 45.4118 34.2353 45.3726C34.2647 45.3333 34.2941 45.2941 34.3137 45.2549C34.3529 45.2157 34.3922 45.1765 34.3922 45.1373C34.4314 45.0784 34.4608 45.0294 34.4902 44.9804L34.4902 44.9803C34.5196 44.9313 34.549 44.8823 34.5882 44.8235C34.6192 44.7771 34.644 44.7307 34.6676 44.6867C34.7037 44.6192 34.7368 44.5573 34.7843 44.5098C34.7843 44.4902 34.7941 44.4804 34.8039 44.4706C34.8137 44.4608 34.8235 44.451 34.8235 44.4314C34.8627 44.3726 34.8921 44.3236 34.9215 44.2746L34.9216 44.2745C34.951 44.2255 34.9804 44.1765 35.0196 44.1176V44.0784C35.0392 44.0392 35.0686 43.9902 35.0981 43.9411C35.1275 43.8921 35.1569 43.8431 35.1765 43.8039C35.1961 43.7647 35.2157 43.7353 35.2353 43.7059L35.2353 43.7059C35.2549 43.6764 35.2745 43.647 35.2941 43.6078C35.3034 43.5893 35.3126 43.5686 35.3224 43.5468C35.354 43.4761 35.3911 43.3933 35.451 43.3333C35.4706 43.2746 35.5 43.2158 35.5293 43.1571L35.5293 43.1571L35.5294 43.157L35.5294 43.157L35.5294 43.157L35.5294 43.1569L35.5294 43.1569L35.5294 43.1569C35.5588 43.098 35.5882 43.0392 35.6078 42.9804C35.6275 42.9608 35.6373 42.9314 35.6471 42.902C35.6569 42.8726 35.6667 42.8431 35.6863 42.8235C35.7059 42.7843 35.7255 42.7353 35.7451 42.6863C35.7647 42.6372 35.7843 42.5882 35.8039 42.549C35.8627 42.6078 35.9313 42.6666 35.9999 42.7254L36 42.7255L36.0002 42.7256C36.0687 42.7844 36.1373 42.8432 36.1961 42.902C36.2353 42.9216 36.2647 42.951 36.2941 42.9804C36.3235 43.0098 36.3529 43.0392 36.3922 43.0588C36.4314 43.0784 36.4608 43.1078 36.4902 43.1373C36.5196 43.1667 36.549 43.1961 36.5882 43.2157C36.6275 43.2353 36.6569 43.2647 36.6863 43.2941C36.7157 43.3235 36.7451 43.3529 36.7843 43.3726L37.1373 43.6078C37.1764 43.6274 37.2058 43.647 37.2352 43.6666L37.2353 43.6667C37.2647 43.6863 37.2941 43.7059 37.3333 43.7255L37.6863 43.9608C37.7059 43.9804 37.7255 43.9902 37.7451 44C37.7647 44.0098 37.7843 44.0196 37.8039 44.0392C37.8431 44.0784 37.9216 44.1176 37.9608 44.1176C38.0392 44.1569 38.1176 44.1961 38.1569 44.2353C38.1765 44.2549 38.2059 44.2647 38.2353 44.2745C38.2647 44.2843 38.2941 44.2941 38.3137 44.3137C38.3529 44.3529 38.4314 44.3922 38.4706 44.3922L38.7059 44.5098L38.9412 44.6275C38.9654 44.6517 38.9896 44.6609 39.0231 44.6737C39.0367 44.6789 39.0518 44.6847 39.0691 44.6923C39.0781 44.6963 39.0877 44.7007 39.098 44.7059C39.1176 44.7255 39.1471 44.7353 39.1765 44.7451C39.2059 44.7549 39.2353 44.7647 39.2549 44.7843C39.3333 44.8039 39.4019 44.8333 39.4705 44.8627L39.4706 44.8627C39.5392 44.8922 39.6078 44.9216 39.6863 44.9412C39.7255 44.9608 39.7647 44.9706 39.8039 44.9804C39.8431 44.9902 39.8824 45 39.9216 45.0196C39.9608 45.0392 40 45.049 40.0392 45.0588C40.0784 45.0686 40.1176 45.0784 40.1569 45.098H40.1961C40.2353 45.098 40.2647 45.1078 40.2941 45.1176C40.3235 45.1275 40.3529 45.1373 40.3922 45.1373C40.5098 45.1765 40.6667 45.2157 40.7843 45.2157C40.8235 45.2157 40.8529 45.2255 40.8824 45.2353C40.9118 45.2451 40.9412 45.2549 40.9804 45.2549C41.0263 45.2549 41.0723 45.2684 41.1103 45.2795L41.1103 45.2795L41.1104 45.2795C41.1373 45.2874 41.1602 45.2941 41.1765 45.2941C41.2157 45.2941 41.2451 45.3039 41.2745 45.3137C41.3039 45.3235 41.3333 45.3333 41.3726 45.3333C41.5293 45.3529 41.6763 45.3725 41.8233 45.3921C41.9705 45.4118 42.1176 45.4314 42.2745 45.451H42.5098H43.0196H43.3333H43.4902H43.6078H43.6471H43.6863H43.8824H43.9608C44.0392 45.451 44.1176 45.451 44.1961 45.4118H44.3137C44.3529 45.4118 44.4314 45.4118 44.4706 45.3725H44.5098C44.549 45.3725 44.6275 45.3726 44.6667 45.3333H44.7059H44.7843H44.8627H44.902H44.9804C45.0196 45.3333 45.049 45.3235 45.0784 45.3137C45.1078 45.3039 45.1373 45.2941 45.1765 45.2941C45.2157 45.2941 45.2549 45.2843 45.2941 45.2745C45.3333 45.2647 45.3726 45.2549 45.4118 45.2549C45.451 45.2549 45.4804 45.2451 45.5098 45.2353C45.5392 45.2255 45.5686 45.2157 45.6078 45.2157C45.6538 45.2157 45.6997 45.2022 45.7378 45.1911L45.7378 45.1911L45.7378 45.1911C45.7647 45.1832 45.7877 45.1765 45.8039 45.1765C45.8431 45.1765 45.8824 45.1765 45.9216 45.1373H45.9608C46.0182 45.1373 46.0546 45.1162 46.1007 45.0896L46.1008 45.0896C46.1177 45.0798 46.1359 45.0693 46.1569 45.0588C46.1735 45.0588 46.1831 45.0588 46.1916 45.0558C46.2032 45.0517 46.2127 45.0422 46.2353 45.0196C42.5882 52.0784 35.2157 56.902 26.7059 56.902C22.1176 56.902 17.9216 55.5294 14.3922 53.1765C14.5098 53.1961 14.5882 53.2157 14.6471 53.2304C14.7059 53.2451 14.7451 53.2549 14.7843 53.2549ZM34.9804 65.0588C29.451 65.0588 24.1961 63.5294 19.7255 60.8627C22 61.4902 24.3922 61.8039 26.8627 61.8039C38.8627 61.8039 49.0588 53.8824 52.4706 42.9804C52.7451 43.2157 53.0588 43.451 53.3726 43.6863C53.3922 43.7059 53.4216 43.7255 53.451 43.7451C53.4804 43.7647 53.5098 43.7843 53.5294 43.8039L53.5686 43.8431C53.6078 43.8824 53.6863 43.9216 53.7647 43.9608L53.8039 44C53.8431 44.0196 53.8726 44.0392 53.902 44.0588L53.902 44.0589C53.9314 44.0785 53.9608 44.0981 54 44.1176H54.0392L54.2745 44.2353C54.4314 44.3137 54.5882 44.3922 54.7843 44.4706C54.8627 44.5098 54.9412 44.549 55.0588 44.5882C55.098 44.6078 55.1274 44.6176 55.1569 44.6275C55.1863 44.6373 55.2157 44.6471 55.2549 44.6667C55.2745 44.6667 55.2941 44.6765 55.3137 44.6863C55.3333 44.6961 55.3529 44.7059 55.3725 44.7059C55.4069 44.7231 55.4413 44.7327 55.4724 44.7415C55.5122 44.7526 55.5466 44.7623 55.5686 44.7843C55.603 44.8015 55.6374 44.8112 55.6685 44.8199C55.7083 44.8311 55.7427 44.8407 55.7647 44.8627C55.7991 44.8799 55.8335 44.8896 55.8646 44.8983C55.9044 44.9095 55.9388 44.9192 55.9608 44.9412C56 44.9608 56.0294 44.9706 56.0588 44.9804C56.0882 44.9902 56.1176 45 56.1569 45.0196C56.5882 45.1373 57.0196 45.2549 57.451 45.3333C57.4902 45.3333 57.5294 45.3333 57.5686 45.3725C57.6078 45.3725 57.647 45.3823 57.6862 45.3921L57.6863 45.3922C57.7255 45.402 57.7647 45.4118 57.8039 45.4118C57.8431 45.4118 57.8824 45.4216 57.9216 45.4314C57.9608 45.4412 58 45.451 58.0392 45.451H58.1569C58.2353 45.451 58.3137 45.451 58.3922 45.4902H58.6667H58.9804H59.2941H59.9216H60.1176C60.25 45.4713 60.3824 45.4615 60.5103 45.452C60.6478 45.4419 60.7801 45.4321 60.902 45.4118C60.9372 45.4118 60.9725 45.4038 61.0113 45.3951C61.0588 45.3844 61.1117 45.3725 61.1765 45.3725L61.1766 45.3725C61.5295 45.2941 61.8824 45.2157 62.1961 45.1373C62.2353 45.1176 62.2745 45.1078 62.3137 45.098C62.3529 45.0882 62.3922 45.0784 62.4314 45.0588C62.5686 45.0196 62.7058 44.9706 62.843 44.9216L62.8431 44.9216C62.9804 44.8726 63.1176 44.8235 63.2549 44.7843C63.2745 44.7843 63.2941 44.7745 63.3137 44.7647C63.3333 44.7549 63.3529 44.7451 63.3726 44.7451C59.3726 56.549 48.1569 65.0588 34.9804 65.0588ZM59.3725 40.6667C56.2353 40.6667 53.6863 38.1176 53.6863 34.9804C53.6863 20.1961 41.6471 8.15686 26.8627 8.15686H26.4706H26.2353H26.1569H25.8824H25.4902C25.3725 8.15686 25.2157 8.15686 25.098 8.19608C25.0196 8.19608 24.9314 8.20588 24.8432 8.21568L24.8431 8.21569C24.7549 8.22549 24.6667 8.23529 24.5882 8.23529C24.4314 8.2549 24.2843 8.26471 24.1372 8.27451C23.9902 8.28431 23.8431 8.29412 23.6863 8.31373C23.6078 8.31373 23.5392 8.32353 23.4706 8.33333C23.402 8.34314 23.3333 8.35294 23.2549 8.35294C23.1765 8.37255 23.098 8.38235 23.0196 8.39216C22.9412 8.40196 22.8627 8.41176 22.7843 8.43137C22.6667 8.43137 22.5098 8.47059 22.3922 8.5098H22.2745C22.2157 8.52941 22.1471 8.53922 22.0784 8.54902C22.0098 8.55882 21.9412 8.56863 21.8824 8.58823C21.8088 8.60662 21.7353 8.61639 21.6658 8.62562C21.587 8.63607 21.5135 8.64584 21.451 8.66667C21.4118 8.66667 21.3725 8.66667 21.3333 8.70588C21.2157 8.72549 21.0882 8.7549 20.9608 8.78432C20.8333 8.81373 20.7059 8.84314 20.5882 8.86275C20.5098 8.88235 20.4412 8.90196 20.3726 8.92157C20.3039 8.94118 20.2353 8.96078 20.1569 8.98039C20.1029 8.99838 20.049 9.00811 19.9988 9.01717C19.9396 9.02786 19.8856 9.03759 19.8431 9.05882C19.8228 9.05882 19.8026 9.05882 19.7823 9.06425C24.2402 6.41813 29.4353 4.86274 34.9804 4.86274C51.5686 4.86274 65.0588 18.3529 65.0588 34.9412C65.0588 38.1176 62.5098 40.6667 59.3725 40.6667ZM114.196 27.2157C113.137 26.5882 111.922 26.2745 110.51 26.2745C109.255 26.2745 108.118 26.5098 107.059 26.9804C106.039 27.451 105.137 28.1569 104.353 29.0588C103.726 28.1961 102.941 27.4902 102 27.0196C101.059 26.549 99.9608 26.2745 98.7451 26.2745C96.8628 26.2745 95.2157 26.8627 93.8824 28.0392V26.6275H89.0196V45.1765H93.8824V32.1961C94.2745 31.6078 94.7843 31.2157 95.3726 30.902C95.9608 30.6275 96.6275 30.4706 97.3333 30.4706C98.3922 30.4706 99.2549 30.8235 99.8824 31.5294C100.51 32.2353 100.824 33.1765 100.824 34.3922V45.1765H105.686V33.6863C105.686 33.4118 105.686 33.1765 105.647 32.9804C105.627 32.8824 105.618 32.7745 105.608 32.6667C105.598 32.5588 105.588 32.451 105.569 32.3529C106 31.7255 106.51 31.2549 107.137 30.9804C107.726 30.6667 108.431 30.5098 109.137 30.5098C110.196 30.5098 111.059 30.8627 111.686 31.5686C112.314 32.2745 112.667 33.2157 112.667 34.4314V45.2157H117.529V33.6863C117.529 32.1961 117.216 30.9412 116.627 29.8039C116.078 28.7059 115.255 27.8431 114.196 27.2157ZM129.529 26.2745C131.333 26.2745 132.902 26.7451 134.275 27.6078C135.686 28.5098 136.745 29.6863 137.529 31.1373C138.314 32.6275 138.706 34.3529 138.706 36.2353V37.5294H124.941C125.176 38.2745 125.529 38.9412 126 39.5294C126.471 40.1177 127.098 40.5882 127.804 40.902C128.51 41.2549 129.294 41.4118 130.118 41.4118C130.98 41.4118 131.726 41.2941 132.431 41.0196C133.137 40.7451 133.725 40.3922 134.235 39.9216L137.451 42.8235C136.314 43.7647 135.176 44.4314 133.961 44.8628C132.784 45.2941 131.412 45.4902 129.922 45.4902C128.039 45.4902 126.353 45.0588 124.863 44.1961C123.373 43.3333 122.157 42.1961 121.294 40.7451C120.392 39.3333 119.961 37.6863 119.961 35.8824C119.961 34.0784 120.392 32.4706 121.216 31.0196C122.078 29.5686 123.216 28.4314 124.667 27.5686C126.118 26.7059 127.725 26.2745 129.529 26.2745ZM125.882 32.1177C125.451 32.6667 125.137 33.3333 124.941 34.0784H133.961C133.804 33.3726 133.49 32.7059 133.059 32.1569C132.627 31.5686 132.078 31.1373 131.49 30.8235C130.902 30.5098 130.235 30.3529 129.49 30.3529C128.745 30.3529 128.039 30.5098 127.451 30.8235C126.824 31.1373 126.314 31.5686 125.882 32.1177ZM154.98 27.8431C154.235 27.3725 153.451 27.0196 152.588 26.7451C151.726 26.4706 150.824 26.3529 149.922 26.3529C148.118 26.3529 146.471 26.7843 145.059 27.6078C143.608 28.4314 142.471 29.6078 141.608 31.0196C140.784 32.4706 140.353 34.0784 140.353 35.8431C140.353 37.6078 140.784 39.2157 141.608 40.6667C142.431 42.1176 143.569 43.2549 145.02 44.1176C146.471 44.9804 148.039 45.4118 149.804 45.4118C151.804 45.4118 153.569 44.8235 155.059 43.647V45.1765H159.882V19.451L155.02 20.2745V27.8431H154.98ZM154.98 39.4902C154.431 40.0784 153.804 40.5098 153.059 40.8235C152.314 41.1372 151.49 41.2941 150.588 41.2941C149.569 41.2941 148.627 41.0588 147.843 40.5882C147.02 40.1176 146.392 39.4902 145.882 38.6667C145.412 37.8431 145.176 36.9412 145.176 35.9216C145.176 34.9019 145.412 34 145.882 33.1765C146.353 32.3529 147.02 31.7255 147.843 31.2549C148.667 30.7843 149.569 30.549 150.588 30.549C151.451 30.549 152.275 30.7059 153.059 31.0196C153.804 31.3333 154.471 31.7647 155.02 32.3137V39.4902H154.98ZM163.882 19.647C164.431 19.1372 165.098 18.8627 165.843 18.8627C166.627 18.8627 167.294 19.1372 167.804 19.647C168.314 20.1568 168.588 20.8235 168.588 21.6078C168.588 22.3529 168.353 23.0196 167.804 23.5686C167.294 24.1176 166.627 24.3921 165.843 24.3921C165.098 24.3921 164.431 24.1176 163.882 23.5686C163.333 23.0196 163.059 22.3529 163.059 21.6078C163.059 20.8235 163.333 20.196 163.882 19.647ZM163.412 26.6275V45.1765H168.275V26.6275H163.412ZM181.412 34.1176C183.216 34.3921 184.627 34.9804 185.608 35.8823C186.588 36.7843 187.059 37.9608 186.98 39.4117C186.98 40.5882 186.627 41.647 185.922 42.549C185.176 43.4509 184.235 44.1568 183.02 44.7058C181.804 45.2157 180.431 45.4902 178.863 45.4902C177.137 45.4902 175.569 45.2549 174.118 44.8235C172.667 44.3529 171.412 43.7255 170.353 42.9019L172.784 39.647C173.882 40.3529 174.902 40.9019 175.882 41.2549C176.863 41.6078 177.843 41.8039 178.824 41.8039C179.922 41.8039 180.784 41.6078 181.451 41.2549C182.118 40.8627 182.431 40.3921 182.431 39.8039C182.431 39.3333 182.235 38.9411 181.882 38.6666C181.529 38.3921 180.941 38.196 180.118 38.0784L176.549 37.5294C174.706 37.2549 173.294 36.6274 172.353 35.7255C171.412 34.8235 170.941 33.6078 170.941 32.1176C170.941 30.9411 171.255 29.8823 171.882 29.0196C172.51 28.1568 173.412 27.4509 174.549 26.9804C175.686 26.4706 177.059 26.2353 178.667 26.2353C180 26.2353 181.333 26.4313 182.627 26.8235C183.922 27.2157 185.137 27.8039 186.275 28.5882L183.922 31.7647C182.902 31.1372 181.961 30.6666 181.02 30.3921C180.078 30.1176 179.137 29.9608 178.196 29.9608C177.333 29.9608 176.627 30.1568 176.078 30.4706C175.569 30.8235 175.294 31.2549 175.294 31.8039C175.294 32.3137 175.49 32.7058 175.882 32.9804C176.275 33.2549 176.902 33.4509 177.843 33.5686L181.412 34.1176ZM196.51 20.7843L196.471 20.7932V20.7843H196.51ZM196.471 20.7932V26.6275H201.765V30.7059H196.471V38.9412C196.471 39.804 196.667 40.4314 197.059 40.7843C197.451 41.1373 198.118 41.3334 199.059 41.3334C199.529 41.3334 199.961 41.3334 200.353 41.2549C200.745 41.1765 201.176 41.0589 201.647 40.902V44.9412C201.176 45.0981 200.549 45.2549 199.804 45.3334C199.059 45.451 198.431 45.4902 197.882 45.4902C195.843 45.4902 194.275 45.0196 193.216 44.0785C192.157 43.1373 191.647 41.7647 191.647 39.9608V30.7059H187.843V26.6275H191.647V21.8824L196.471 20.7932ZM204.51 19.647C205.059 19.1372 205.725 18.8627 206.471 18.8627C207.255 18.8627 207.922 19.1372 208.431 19.647C208.941 20.1568 209.216 20.8235 209.216 21.6078C209.216 22.3529 208.98 23.0196 208.431 23.5686C207.922 24.1176 207.255 24.3921 206.471 24.3921C205.725 24.3921 205.059 24.1176 204.51 23.5686C203.961 23.0196 203.686 22.3529 203.686 21.6078C203.686 20.8235 203.961 20.196 204.51 19.647ZM204.039 26.6275V45.1765H208.902V26.6275H204.039ZM220.471 26.2745C222.98 26.2745 224.941 26.8627 226.314 28.0784C227.686 29.2549 228.392 30.9804 228.392 33.1373V45.2157H223.569V43.8824C222.784 44.4706 221.961 44.8627 221.098 45.1373C220.196 45.4118 219.255 45.5294 218.196 45.5294C216.863 45.5294 215.686 45.2549 214.667 44.7843C213.647 44.3137 212.863 43.6471 212.275 42.7843C211.686 41.9608 211.412 40.9412 211.412 39.8431C211.412 38.0392 212.078 36.6667 213.412 35.6863C214.745 34.7059 216.588 34.1961 218.941 34.1961C220.549 34.1961 222.078 34.4314 223.49 34.9412V33.5686C223.49 32.5098 223.176 31.6863 222.51 31.1373C221.882 30.5882 220.902 30.3137 219.608 30.3137C218.863 30.3137 218 30.4706 217.098 30.7059C216.196 30.9804 215.137 31.3726 213.961 31.8824L212.196 28.2745C213.686 27.6078 215.098 27.098 216.431 26.7843C217.765 26.4314 219.098 26.2745 220.471 26.2745ZM221.726 41.7255C222.392 41.5294 223.02 41.2157 223.569 40.8235V38.1569C222.98 37.9216 222.353 37.7255 221.726 37.6078C221.059 37.4902 220.392 37.4118 219.647 37.4118C218.51 37.4118 217.647 37.6078 217.02 38.0392C216.392 38.4314 216.078 39.0196 216.078 39.7255C216.078 40.4314 216.392 40.9804 217.02 41.4118C217.647 41.8431 218.471 42.0392 219.49 42.0392C220.275 42.0392 221.02 41.9216 221.726 41.7255Z" fill="white"/>
</svg>
