<svg width="32" height="32" viewBox="0 0 32 32" fill="none" xmlns="http://www.w3.org/2000/svg">
<g id="Icon=Cardio" clip-path="url(#clip0_289_3252)">
<path id="Union" fill-rule="evenodd" clip-rule="evenodd" d="M4.00685 12.6267C4.00685 9.0614 6.75108 5.5 10.4668 5.5C12.5338 5.5 13.9102 6.47355 14.7705 7.41913C15.0478 7.81618 15.5049 8.06 16.0002 8.06H16.0135C16.5116 8.06 16.9709 7.81343 17.2477 7.41258C18.1014 6.46558 19.4753 5.5 21.5468 5.5C25.2626 5.5 28.0068 9.0614 28.0068 12.6267C28.0068 16.359 25.6603 19.8288 22.7468 22.4663C21.3132 23.7641 19.8046 24.8013 18.5157 25.5063C17.8711 25.8589 17.3 26.1183 16.8365 26.2858C16.3429 26.4641 16.0749 26.5 16.0002 26.5C15.9255 26.5 15.6575 26.4641 15.1639 26.2858C14.7005 26.1183 14.1294 25.8589 13.4849 25.5064C12.1963 24.8014 10.6882 23.7643 9.25549 22.4666C6.34381 19.8293 4.00113 16.3603 4.00685 12.629L4.00685 12.6267ZM10.4668 2.5C12.9016 2.5 14.7233 3.41291 16.0034 4.46296C17.2873 3.40592 19.1117 2.5 21.5468 2.5C27.3511 2.5 31.0068 7.87194 31.0068 12.6267C31.0068 17.601 27.9333 21.8178 24.7602 24.6904C23.1505 26.1475 21.4491 27.3212 19.9555 28.1383C19.2088 28.5467 18.4956 28.8761 17.8559 29.1073C17.2462 29.3275 16.5921 29.5 16.0002 29.5C15.4082 29.5 14.7541 29.3275 14.1445 29.1073C13.5048 28.8761 12.7916 28.5467 12.045 28.1382C10.5515 27.3211 8.85047 26.1474 7.24154 24.6901C4.07013 21.8176 0.999708 17.6003 1.00685 12.6255C1.00743 7.87108 4.66308 2.5 10.4668 2.5ZM1.00685 12.6255L1.00685 12.6267H2.50654L1.00685 12.6244L1.00685 12.6255ZM15.8916 11.3913C15.6697 10.8916 15.1935 10.5522 14.6488 10.5055C14.1041 10.4588 13.577 10.7122 13.2733 11.1668L11.4921 13.8333H9.33398C8.50556 13.8333 7.83398 14.5049 7.83398 15.3333C7.83398 16.1618 8.50556 16.8333 9.33398 16.8333H12.294C12.795 16.8333 13.263 16.5832 13.5413 16.1666L14.255 15.0981L16.1097 19.2754C16.3316 19.7751 16.8078 20.1145 17.3525 20.1612C17.8972 20.2079 18.4243 19.9545 18.728 19.4999L20.5092 16.8333H22.6673C23.4957 16.8333 24.1673 16.1618 24.1673 15.3333C24.1673 14.5049 23.4957 13.8333 22.6673 13.8333H19.7073C19.2063 13.8333 18.7383 14.0835 18.46 14.5001L17.7463 15.5686L15.8916 11.3913Z" fill="#76C0AB"/>
</g>
<defs>
<clipPath id="clip0_289_3252">
<rect width="32" height="32" fill="white"/>
</clipPath>
</defs>
</svg>
