<svg width="32" height="32" viewBox="0 0 32 32" fill="none" xmlns="http://www.w3.org/2000/svg">
<g id="Icon=Dentist" clip-path="url(#clip0_289_3260)">
<path id="Union" fill-rule="evenodd" clip-rule="evenodd" d="M14.181 4.12984C10.643 3.13066 6.90096 4.6403 5.00947 7.77104L5.00856 7.77254C4.23848 9.05056 3.84668 10.4923 3.84668 11.9734V12.0934C3.84668 16.3849 4.69933 20.6525 6.39412 24.6164L6.83268 25.6397L6.83376 25.6422C7.48229 27.1666 8.98414 28.1667 10.6533 28.1667C12.3649 28.1667 13.8892 27.1215 14.5146 25.5391L14.5152 25.5375L15.7797 22.3564C15.822 22.2515 15.9157 22.1934 16.0133 22.1934C16.1109 22.1934 16.205 22.2523 16.2473 22.3571L17.5114 25.5375L17.5121 25.5391C18.1375 27.1215 19.6618 28.1667 21.3733 28.1667C23.0426 28.1667 24.5445 27.1665 25.193 25.6421L25.194 25.6397L25.6321 24.6176L25.6343 24.6123C27.3127 20.6542 28.18 16.4017 28.18 12.0934V11.9734C28.18 10.4967 27.7704 9.04798 27.0254 7.78473C26.9744 7.69829 26.9155 7.61815 26.8499 7.54503C24.924 4.55999 21.2628 3.17318 17.8252 4.12807L16.5557 4.48887C16.1935 4.58821 15.8066 4.58821 15.4443 4.48887L14.1834 4.13052L14.181 4.12984ZM6.84668 11.9734C6.84668 11.028 7.09473 10.1234 7.5777 9.32159C8.77949 7.33321 11.1432 6.38982 13.3645 7.0166L13.3657 7.01692L14.6299 7.37627L14.6401 7.37909C15.5285 7.6248 16.4716 7.62484 17.3599 7.37913L18.6322 7.01753C20.8659 6.39898 23.237 7.34254 24.4199 9.31747C24.4588 9.38255 24.5023 9.444 24.5498 9.50152C24.9615 10.2695 25.18 11.122 25.18 11.9734V12.0934C25.18 15.9975 24.3944 19.8508 22.8734 23.4387L22.8724 23.4411L22.4346 24.4625L22.4327 24.4671C22.254 24.8879 21.8365 25.1667 21.3733 25.1667C20.8989 25.1667 20.4769 24.8793 20.3019 24.436L19.0339 21.246L19.0327 21.243C18.5415 20.015 17.3555 19.1934 16.0133 19.1934C14.6712 19.1934 13.4852 20.015 12.994 21.243L12.9928 21.246L11.7261 24.4326L11.7248 24.436C11.5498 24.8793 11.1278 25.1667 10.6533 25.1667C10.1901 25.1667 9.77273 24.8879 9.59402 24.4671L9.15247 23.4368C7.62066 19.854 6.84668 15.9885 6.84668 12.0934V11.9734ZM14.1842 8.25047C13.3873 8.02385 12.5577 8.4861 12.331 9.28292C12.1044 10.0798 12.5667 10.9094 13.3635 11.136C15.0851 11.6257 16.9159 11.6257 18.6375 11.136C19.4343 10.9094 19.8966 10.0798 19.6699 9.28292C19.4433 8.4861 18.6137 8.02385 17.8168 8.25047C16.6317 8.58752 15.3693 8.58752 14.1842 8.25047Z" fill="#76C0AB"/>
</g>
<defs>
<clipPath id="clip0_289_3260">
<rect width="32" height="32" fill="white"/>
</clipPath>
</defs>
</svg>
