<svg width="32" height="32" viewBox="0 0 32 32" fill="none" xmlns="http://www.w3.org/2000/svg">
<g id="Icon=Dermato" clip-path="url(#clip0_289_3268)">
<path id="Union" fill-rule="evenodd" clip-rule="evenodd" d="M13.1064 2.5C12.0086 2.5 10.9413 2.93362 10.1594 3.73227L9.61903 4.27267C9.03324 4.85846 9.03324 5.80821 9.61903 6.39399C10.2048 6.97978 11.1546 6.97978 11.7403 6.39399L12.287 5.84733L12.3011 5.83309C12.5051 5.6235 12.7945 5.5 13.1064 5.5H14.5V6.5H13.9993C12.4376 6.5 11.166 7.77157 11.166 9.33333V10.7449C8.46397 11.5127 6.48633 13.9977 6.48633 16.9467V26.6667C6.48633 28.9618 8.3579 30.8333 10.653 30.8333H21.3197C23.6148 30.8333 25.4863 28.9618 25.4863 26.6667V16.9467C25.4863 14.0072 23.5214 11.5287 20.8327 10.7524V9.33333C20.8327 7.77157 19.5611 6.5 17.9993 6.5H17.5V5.5H19.9997C20.8281 5.5 21.4997 4.82843 21.4997 4C21.4997 3.17157 20.8281 2.5 19.9997 2.5H16H13.1064ZM16 9.5H14.166V10.5H17.8327V9.5H16ZM12.933 13.5H19.0397C20.9446 13.5 22.4863 15.0418 22.4863 16.9467V26.6667C22.4863 27.3049 21.9579 27.8333 21.3197 27.8333H10.653C10.0148 27.8333 9.48633 27.3049 9.48633 26.6667V16.9467C9.48633 15.0418 11.0281 13.5 12.933 13.5Z" fill="#76C0AB"/>
</g>
<defs>
<clipPath id="clip0_289_3268">
<rect width="32" height="32" fill="white"/>
</clipPath>
</defs>
</svg>
