<svg width="32" height="32" viewBox="0 0 32 32" fill="none" xmlns="http://www.w3.org/2000/svg">
<g id="Icon=Gastro" clip-path="url(#clip0_289_3277)">
<path id="Vector (Stroke)" fill-rule="evenodd" clip-rule="evenodd" d="M9.42969 6.0496C8.94402 4.22983 10.3525 2.5 12.1733 2.5H13.5333C14.5828 2.5 15.8016 3.10737 16.2218 4.36191C16.3838 4.83972 16.8268 5.16667 17.3333 5.16667H18.6667C24.6551 5.16667 29.5 10.0116 29.5 16V17.3333C29.5 17.4092 29.4944 17.4837 29.4835 17.5565C29.1454 24.2026 23.6512 29.5 16.9067 29.5C14.2307 29.5 11.6487 28.4366 9.75267 26.5407L9.39616 26.1841C9.01676 27.7071 7.64158 28.8333 6 28.8333C4.06491 28.8333 2.5 27.2684 2.5 25.3333V21.2533C2.5 19.2599 3.56719 17.2365 5.53226 16.331C7.61891 15.3708 9.97094 15.8496 11.5007 17.3793L12.501 18.3796C12.5949 18.4671 12.6916 18.5 12.7867 18.5C12.9982 18.5 13.1667 18.3316 13.1667 18.12H14.6667H16.1667C16.1667 19.9884 14.6551 21.5 12.7867 21.5C11.8708 21.5 11.0367 21.1346 10.4129 20.5338L10.3927 20.514L9.37934 19.5007C8.72239 18.8437 7.71374 18.6295 6.78706 19.056C6.03249 19.404 5.5 20.2604 5.5 21.2533V25.3333C5.5 25.6116 5.72176 25.8333 6 25.8333C6.27824 25.8333 6.5 25.6116 6.5 25.3333V22.6667C6.5 22.06 6.86546 21.513 7.42597 21.2808C7.98649 21.0487 8.63166 21.177 9.06066 21.606L11.874 24.4193C13.2047 25.75 15.0226 26.5 16.9067 26.5C22.2104 26.5 26.5 22.1994 26.5 16.9067V16C26.5 11.6684 22.9982 8.16667 18.6667 8.16667H17.3333C15.5613 8.16667 14.0519 7.06027 13.4443 5.5H12.3912C12.7747 6.7561 13.6207 7.80506 14.7467 8.46681L14.7584 8.47371C15.5029 8.92036 16.1667 9.7589 16.1667 10.8667V18.12H14.6667H13.1667V11.0176C11.3466 9.92739 9.98122 8.16788 9.42969 6.0496ZM13.377 5.31435L13.3781 5.31753L13.377 5.31435Z" fill="#76C0AB"/>
</g>
<defs>
<clipPath id="clip0_289_3277">
<rect width="32" height="32" fill="white"/>
</clipPath>
</defs>
</svg>
