<svg width="32" height="32" viewBox="0 0 32 32" fill="none" xmlns="http://www.w3.org/2000/svg">
<g id="Icon=General" clip-path="url(#clip0_289_3325)">
<path id="Union" fill-rule="evenodd" clip-rule="evenodd" d="M8 1.16675C8.82843 1.16675 9.5 1.83832 9.5 2.66675V3.9684C9.50022 3.97891 9.50033 3.98944 9.50033 4C9.50033 4.01056 9.50022 4.02109 9.5 4.0316V5.33342C9.5 6.16184 8.82843 6.83342 8 6.83342C7.22788 6.83342 6.59202 6.25003 6.50915 5.5H5.33366C4.69542 5.5 4.16699 6.02843 4.16699 6.66667V12C4.16699 15.5849 7.08209 18.5 10.667 18.5C14.2519 18.5 17.167 15.5849 17.167 12V6.66667C17.167 6.02843 16.6386 5.5 16.0003 5.5H14.8248C14.742 6.25003 14.1061 6.83342 13.334 6.83342C12.5056 6.83342 11.834 6.16184 11.834 5.33342V4.03155C11.8338 4.02106 11.8337 4.01054 11.8337 4C11.8337 3.98946 11.8338 3.97894 11.834 3.96845V2.66675C11.834 1.83832 12.5056 1.16675 13.334 1.16675C14.106 1.16675 14.7419 1.75005 14.8248 2.5H16.0003C18.2954 2.5 20.167 4.37157 20.167 6.66667V12C20.167 16.7314 16.6975 20.6615 12.167 21.3819V21.6667C12.167 25.0782 14.9221 27.8333 18.3337 27.8333C21.4369 27.8333 23.9969 25.5538 24.4343 22.5741C22.5336 21.9235 21.167 20.1214 21.167 18.0001C21.167 15.3307 23.3309 13.1667 26.0003 13.1667C28.6697 13.1667 30.8337 15.3307 30.8337 18.0001C30.8337 20.1635 29.4123 21.995 27.4524 22.6115C26.9805 27.2348 23.083 30.8333 18.3337 30.8333C13.2652 30.8333 9.16699 26.7351 9.16699 21.6667V21.3819C4.63644 20.6615 1.16699 16.7314 1.16699 12V6.66667C1.16699 4.37157 3.03857 2.5 5.33366 2.5H6.50916C6.59211 1.75005 7.22794 1.16675 8 1.16675ZM26.0119 19.8334C27.0191 19.8271 27.8337 19.0087 27.8337 18.0001C27.8337 16.9876 27.0128 16.1667 26.0003 16.1667C24.9878 16.1667 24.167 16.9876 24.167 18.0001C24.167 19.0087 24.9815 19.8271 25.9887 19.8334L26.0003 19.8333L26.0119 19.8334Z" fill="#76C0AB"/>
</g>
<defs>
<clipPath id="clip0_289_3325">
<rect width="32" height="32" fill="white"/>
</clipPath>
</defs>
</svg>
