<svg width="32" height="32" viewBox="0 0 32 32" fill="none" xmlns="http://www.w3.org/2000/svg">
<g id="Icon=Gyneaco" clip-path="url(#clip0_289_3286)">
<path id="Union" fill-rule="evenodd" clip-rule="evenodd" d="M11.4746 6.14066C12.3289 5.28645 13.7124 5.28645 14.5667 6.14066L14.94 6.51399C15.2213 6.7953 15.6028 6.95333 16.0007 6.95333C16.3985 6.95333 16.78 6.7953 17.0613 6.51399L17.4346 6.14066C18.2889 5.28645 19.6724 5.28645 20.5267 6.14066C21.3809 6.99487 21.3809 8.37846 20.5267 9.23267L17.0067 12.7527C16.9802 12.7791 16.955 12.8063 16.9308 12.8343C16.6797 13.0449 16.3532 13.1667 16.0007 13.1667C15.6275 13.1667 15.258 13.0195 14.9747 12.746L11.4767 9.23469L11.4746 9.23267C10.6204 8.37846 10.6204 6.99487 11.4746 6.14066ZM22.648 4.01934C20.838 2.2094 18.0245 2.01655 16.0007 3.44079C13.9768 2.01655 11.1633 2.2094 9.35332 4.01934C7.3279 6.04477 7.32754 9.32704 9.35224 11.3529L9.35332 11.354L12.858 14.872L12.8728 14.8867C13.7088 15.7027 14.8298 16.1667 16.0007 16.1667C17.178 16.1667 18.3083 15.707 19.1413 14.874C19.1814 14.8339 19.2188 14.792 19.2536 14.7484L22.648 11.354C24.6738 9.32821 24.6738 6.04513 22.648 4.01934ZM4.66699 11.8333C2.7319 11.8333 1.16699 13.3982 1.16699 15.3333V24.0799C1.16699 25.1341 1.40551 26.1777 1.88535 27.1374L2.65868 28.6841C3.02917 29.425 3.93018 29.7254 4.67115 29.3549C5.41211 28.9844 5.71245 28.0834 5.34197 27.3424L4.56863 25.7958C4.30181 25.2621 4.16699 24.6791 4.16699 24.0799V15.3333C4.16699 15.055 4.38875 14.8333 4.66699 14.8333C4.94523 14.8333 5.16699 15.055 5.16699 15.3333V20.5909C5.10812 21.4406 5.34427 22.3119 5.89796 23.0386L7.29409 24.9001C7.79114 25.5628 8.73134 25.6971 9.39408 25.2001C10.0568 24.703 10.1911 23.7628 9.69409 23.1001L8.29409 21.2334L8.28509 21.2215C8.19859 21.1086 8.15563 20.9676 8.15873 20.825C8.16137 20.7998 8.16339 20.7744 8.16477 20.7489C8.18371 20.611 8.24627 20.4759 8.35474 20.3674C8.64785 20.0743 9.12436 20.1169 9.35893 20.431L11.5983 23.4168C11.7546 23.6282 11.8341 23.8746 11.8341 24.1201V28.0001C11.8341 28.8285 12.5057 29.5001 13.3341 29.5001C14.1625 29.5001 14.8341 28.8285 14.8341 28.0001V24.1201C14.8341 23.2197 14.5408 22.347 14.0049 21.6256L11.7626 18.6358L11.7616 18.6345C10.8908 17.4696 9.47988 16.9902 8.16699 17.2301V15.3333C8.16699 13.3982 6.60209 11.8333 4.66699 11.8333ZM27.334 14.8333C27.0557 14.8333 26.834 15.055 26.834 15.3333V20.5895C26.8932 21.4396 26.6571 22.3115 26.1031 23.0386L24.707 24.9001C24.2099 25.5628 23.2697 25.6971 22.607 25.2001C21.9442 24.703 21.8099 23.7628 22.307 23.1001L23.707 21.2334L23.716 21.2215C23.8022 21.1089 23.8452 20.9684 23.8424 20.8262C23.8396 20.8002 23.8375 20.774 23.8361 20.7476C23.817 20.6102 23.7545 20.4755 23.6463 20.3674C23.3532 20.0743 22.8767 20.1169 22.6421 20.431L22.6403 20.4334L20.4028 23.4168C20.2465 23.6282 20.167 23.8746 20.167 24.1201V28.0001C20.167 28.8285 19.4954 29.5001 18.667 29.5001C17.8386 29.5001 17.167 28.8285 17.167 28.0001V24.1201C17.167 23.2197 17.4603 22.347 17.9962 21.6256L18.0003 21.6201L18.0003 21.6201L20.2385 18.6358L20.2395 18.6345C21.1104 17.4696 22.5211 16.9902 23.834 17.2301V15.3333C23.834 13.3982 25.3989 11.8333 27.334 11.8333C29.2691 11.8333 30.834 13.3982 30.834 15.3333V24.0799C30.834 25.1341 30.5955 26.1777 30.1156 27.1374L29.3423 28.6841C28.9718 29.425 28.0708 29.7254 27.3298 29.3549C26.5889 28.9844 26.2885 28.0834 26.659 27.3424L27.4323 25.7958C27.6992 25.2621 27.834 24.6791 27.834 24.0799V15.3333C27.834 15.055 27.6122 14.8333 27.334 14.8333Z" fill="#76C0AB"/>
</g>
<defs>
<clipPath id="clip0_289_3286">
<rect width="32" height="32" fill="white"/>
</clipPath>
</defs>
</svg>
