<svg width="32" height="32" viewBox="0 0 32 32" fill="none" xmlns="http://www.w3.org/2000/svg">
<g id="Icon=Kine" clip-path="url(#clip0_289_3295)">
<path id="Vector (Stroke)" fill-rule="evenodd" clip-rule="evenodd" d="M16 14.5C16.8284 14.5 17.5 15.1716 17.5 16V28C17.5 28.8284 16.8284 29.5 16 29.5C15.1716 29.5 14.5 28.8284 14.5 28V16C14.5 15.1716 15.1716 14.5 16 14.5Z" fill="#76C0AB"/>
<path id="Vector (Stroke)_2" fill-rule="evenodd" clip-rule="evenodd" d="M21.333 15.0867C22.1614 15.0867 22.833 15.7582 22.833 16.5867V28C22.833 28.8284 22.1614 29.5 21.333 29.5C20.5046 29.5 19.833 28.8284 19.833 28V16.5867C19.833 15.7582 20.5046 15.0867 21.333 15.0867Z" fill="#76C0AB"/>
<path id="Vector (Stroke)_3" fill-rule="evenodd" clip-rule="evenodd" d="M21.9379 15.1949C18.1206 14.2727 13.866 14.2724 10.0605 15.1952L21.9379 15.1949ZM10.0605 15.1952C6.39206 16.08 3.83301 19.3827 3.83301 23.1332V26.6665C3.83301 27.4949 4.50458 28.1665 5.33301 28.1665C6.16143 28.1665 6.83301 27.4949 6.83301 26.6665V23.1332C6.83301 20.7507 8.46015 18.6669 10.7645 18.1114L10.7666 18.1109C14.1071 17.3007 17.8785 17.3004 21.234 18.1112L21.2348 18.1114C23.5392 18.6669 25.1663 20.7507 25.1663 23.1332V25.3332C25.1663 25.9714 24.6379 26.4998 23.9997 26.4998H12.1663V24.6665C12.1663 24.3883 12.3881 24.1665 12.6663 24.1665H15.9997C16.8281 24.1665 17.4997 23.4949 17.4997 22.6665C17.4997 21.8381 16.8281 21.1665 15.9997 21.1665H12.6663C10.7312 21.1665 9.16634 22.7314 9.16634 24.6665V26.6665C9.16634 28.2283 10.4379 29.4998 11.9997 29.4998H23.9997C26.2948 29.4998 28.1663 27.6283 28.1663 25.3332V23.1332C28.1663 19.3826 25.6072 16.0799 21.9387 15.1951" fill="#76C0AB"/>
<path id="Vector (Stroke)_4" fill-rule="evenodd" clip-rule="evenodd" d="M15.9993 4.83325C14.3903 4.83325 13.0859 6.1376 13.0859 7.74659C13.0859 9.35557 14.3903 10.6599 15.9993 10.6599C17.6083 10.6599 18.9126 9.35557 18.9126 7.74659C18.9126 6.1376 17.6083 4.83325 15.9993 4.83325ZM10.0859 7.74659C10.0859 4.48074 12.7334 1.83325 15.9993 1.83325C19.2651 1.83325 21.9126 4.48074 21.9126 7.74659C21.9126 11.0124 19.2651 13.6599 15.9993 13.6599C12.7334 13.6599 10.0859 11.0124 10.0859 7.74659Z" fill="#76C0AB"/>
</g>
<defs>
<clipPath id="clip0_289_3295">
<rect width="32" height="32" fill="white"/>
</clipPath>
</defs>
</svg>
