<svg width="32" height="32" viewBox="0 0 32 32" fill="none" xmlns="http://www.w3.org/2000/svg">
<g id="Icon=Logopede" clip-path="url(#clip0_289_3307)">
<path id="Union" fill-rule="evenodd" clip-rule="evenodd" d="M16.8934 1.16675C11.8304 1.16675 7.16852 3.90042 4.70319 8.32307C2.35857 12.5292 2.36536 17.6257 4.66903 21.8143L2.59122 27.4984C2.39082 28.0466 2.52664 28.6613 2.93938 29.0741C3.35212 29.4868 3.96681 29.6226 4.51503 29.4222L10.199 27.3445C15.1201 30.0515 21.2271 29.5303 25.6341 25.9818C30.2345 22.2775 32.0142 16.0627 30.0408 10.4863C28.0933 4.9833 22.9373 1.26992 17.1059 1.18169C17.0365 1.17184 16.9655 1.16675 16.8934 1.16675ZM7.32357 9.78376C9.22763 6.36797 12.8011 4.23498 16.7049 4.16836C16.7666 4.17609 16.8295 4.18008 16.8934 4.18008C21.5351 4.18008 25.6637 7.11029 27.2126 11.4872C28.7592 15.8574 27.3656 20.736 23.7526 23.6451C20.1409 26.5532 15.0758 26.8685 11.139 24.4197C10.7472 24.176 10.2651 24.1262 9.83172 24.2846L6.51729 25.4962L7.72887 22.1817C7.88721 21.7486 7.83748 21.2666 7.59402 20.8749C5.49435 17.4967 5.38981 13.2528 7.32357 9.78376ZM13.5 10.6667C13.5 9.83832 12.8284 9.16675 12 9.16675C11.1716 9.16675 10.5 9.83832 10.5 10.6667V12.0001C10.5 12.8285 11.1716 13.5001 12 13.5001C12.8284 13.5001 13.5 12.8285 13.5 12.0001V10.6667ZM22.833 10.6667C22.833 9.83832 22.1614 9.16675 21.333 9.16675C20.5046 9.16675 19.833 9.83832 19.833 10.6667V12.0001C19.833 12.8285 20.5046 13.5001 21.333 13.5001C22.1614 13.5001 22.833 12.8285 22.833 12.0001V10.6667ZM13.0598 18.5253L13.059 18.5245L13.0575 18.523L13.0519 18.5175L13.0603 18.5253H13.0598ZM16.8617 18.5212L13.0603 18.5253L13.0801 18.5433C13.111 18.5709 13.1656 18.618 13.2426 18.6782C13.3973 18.7992 13.6381 18.9699 13.9558 19.1429C14.5916 19.4892 15.5126 19.8335 16.6667 19.8335C17.8208 19.8335 18.7417 19.4892 19.3775 19.1429C19.6952 18.9699 19.936 18.7992 20.0907 18.6782C20.1677 18.618 20.2223 18.5709 20.2533 18.5433L20.2739 18.5245H20.2743L20.2758 18.523L20.2784 18.5205L20.2815 18.5175C20.8679 17.9406 21.8112 17.9434 22.394 18.5262C22.9798 19.112 22.9798 20.0617 22.394 20.6475L21.3333 19.5868C22.394 20.6475 22.3936 20.6479 22.3931 20.6484L22.3922 20.6493L22.3902 20.6513L22.3857 20.6557L22.3747 20.6665C22.3664 20.6746 22.3564 20.6842 22.3445 20.6955C22.3208 20.7179 22.2899 20.7466 22.2519 20.7805C22.1759 20.8484 22.0712 20.9378 21.9389 21.0413C21.6748 21.2478 21.2965 21.5138 20.8125 21.7774C19.8449 22.3045 18.4326 22.8335 16.6667 22.8335C14.9008 22.8335 13.4884 22.3045 12.5208 21.7774C12.0369 21.5138 11.6585 21.2478 11.3945 21.0413C11.2621 20.9378 11.1574 20.8484 11.0814 20.7805C11.0434 20.7466 11.0125 20.7179 10.9888 20.6955C10.9831 20.69 10.9777 20.6849 10.9728 20.6802C10.9676 20.6752 10.9629 20.6707 10.9586 20.6665L10.9476 20.6557L10.9431 20.6513L10.9412 20.6493L10.9402 20.6484C10.9398 20.6479 10.9393 20.6475 12 19.5868L10.9393 20.6475C10.3536 20.0617 10.3536 19.112 10.9393 18.5262C11.5222 17.9434 12.4654 17.9405 13.0519 18.5175L16.8617 18.5212ZM16.8617 18.5212L20.2739 18.5245L20.2815 18.5175L16.8617 18.5212Z" fill="#76C0AB"/>
</g>
<defs>
<clipPath id="clip0_289_3307">
<rect width="32" height="32" fill="white"/>
</clipPath>
</defs>
</svg>
