<svg width="32" height="32" viewBox="0 0 32 32" fill="none" xmlns="http://www.w3.org/2000/svg">
<g id="Icon=Opthalmo" clip-path="url(#clip0_289_3337)">
<path id="Union" fill-rule="evenodd" clip-rule="evenodd" d="M9.49478 13.5841C7.50721 14.6538 5.62538 16.2423 3.97229 18.3728C3.46446 19.0274 2.52219 19.1463 1.86767 18.6384C1.21315 18.1306 1.09423 17.1883 1.60207 16.5338C5.49661 11.5143 10.6976 8.90332 16.0005 8.90332C21.3035 8.90332 26.5044 11.5143 30.399 16.5338C30.9068 17.1883 30.7879 18.1306 30.1334 18.6384C29.4788 19.1463 28.5366 19.0274 28.0287 18.3728C26.6201 16.5573 25.0453 15.1354 23.3806 14.0927C23.6739 14.8955 23.834 15.7624 23.834 16.6667C23.834 20.8089 20.4761 24.1667 16.334 24.1667C12.1918 24.1667 8.83398 20.8089 8.83398 16.6667C8.83398 15.568 9.07026 14.5244 9.49478 13.5841ZM11.834 16.6667C11.834 14.1815 13.8487 12.1667 16.334 12.1667C18.8193 12.1667 20.834 14.1815 20.834 16.6667C20.834 19.152 18.8193 21.1667 16.334 21.1667C13.8487 21.1667 11.834 19.152 11.834 16.6667Z" fill="#76C0AB"/>
</g>
<defs>
<clipPath id="clip0_289_3337">
<rect width="32" height="32" fill="white"/>
</clipPath>
</defs>
</svg>
