<svg width="32" height="32" viewBox="0 0 32 32" fill="none" xmlns="http://www.w3.org/2000/svg">
<g id="Icon=Hearing" clip-path="url(#clip0_289_3250)">
<path id="Vector (Stroke)" fill-rule="evenodd" clip-rule="evenodd" d="M12.7368 15.892C13.4818 14.446 15.4221 14.6187 16.0884 15.8907L16.1005 15.9144L17.565 18.8353L17.578 18.8092C17.9627 18.0398 18.7587 17.54 19.6263 17.54H20.7063C21.5347 17.54 22.2063 18.2116 22.2063 19.04C22.2063 19.8684 21.5347 20.54 20.7063 20.54H20.0667L19.2613 22.1508C18.5621 23.5492 16.5722 23.5497 15.8721 22.1523C15.872 22.1521 15.8719 22.152 15.8718 22.1518C15.8717 22.1515 15.8715 22.1512 15.8713 22.1508L14.3805 19.1774L14.2839 19.3579C13.885 20.1104 13.1031 20.5667 12.2663 20.5667H11.293C10.4645 20.5667 9.79297 19.8951 9.79297 19.0667C9.79297 18.2382 10.4645 17.5667 11.293 17.5667H11.84L12.7368 15.892Z" fill="#76C0AB"/>
<path id="Vector (Stroke)_2" fill-rule="evenodd" clip-rule="evenodd" d="M8.2364 16.5633C7.11436 11.5802 10.9092 6.83325 16.0132 6.83325L8.2364 16.5633ZM8.2364 16.5633L9.95632 24.1895C10.2624 25.5462 9.22256 26.8333 7.83982 26.8333H6.23982C4.29322 26.8333 2.61346 25.4765 2.17823 23.5905L2.17693 23.5848L1.27026 19.5848L1.26943 19.5811C0.708356 17.0763 2.52018 14.6827 5.04108 14.5099C5.1905 8.73887 9.92195 3.83325 16.0132 3.83325C22.1044 3.83325 26.8358 8.73887 26.9852 14.5099C29.5061 14.6827 31.318 17.0763 30.7569 19.5811L30.756 19.5848L29.8504 23.5806C29.4284 25.4885 27.7192 26.8333 25.7865 26.8333H24.1865C22.8036 26.8333 21.7636 25.5463 22.07 24.1895L23.7898 16.5637C24.9122 11.5804 21.1173 6.83325 16.0132 6.83325M26.654 17.4999L25.2257 23.8333H25.7865C26.3319 23.8333 26.8081 23.4471 26.9215 22.9313L26.9236 22.9217L27.8294 18.9254L27.8297 18.9241C27.9929 18.1917 27.435 17.4999 26.6932 17.4999H26.654ZM4.19655 18.9239L4.19688 18.9254L5.10141 22.916L5.10194 22.9182C5.22753 23.4577 5.70717 23.8333 6.23982 23.8333H6.80062L5.3723 17.4999H5.33315C4.59132 17.4999 4.03348 18.1916 4.19655 18.9239Z" fill="#76C0AB"/>
</g>
<defs>
<clipPath id="clip0_289_3250">
<rect width="32" height="32" fill="white"/>
</clipPath>
</defs>
</svg>
