<svg width="32" height="32" viewBox="0 0 32 32" fill="none" xmlns="http://www.w3.org/2000/svg">
<g id="Icon=Pneumo" clip-path="url(#clip0_289_3466)">
<path id="Union" fill-rule="evenodd" clip-rule="evenodd" d="M13.867 2.5C14.6954 2.5 15.367 3.17157 15.367 4V10.1333C15.367 12.7351 13.2688 14.8333 10.667 14.8333C9.83856 14.8333 9.16699 14.1618 9.16699 13.3333C9.16699 12.5049 9.83856 11.8333 10.667 11.8333C11.6119 11.8333 12.367 11.0782 12.367 10.1333V4C12.367 3.17157 13.0386 2.5 13.867 2.5ZM18.1338 2.5C18.9622 2.5 19.6338 3.17157 19.6338 4V10.1333C19.6338 11.0782 20.3889 11.8333 21.3338 11.8333C22.1622 11.8333 22.8338 12.5049 22.8338 13.3333C22.8338 14.1617 22.1622 14.8333 21.3338 14.8333C18.732 14.8333 16.6338 12.7351 16.6338 10.1333V4C16.6338 3.17157 17.3054 2.5 18.1338 2.5ZM17.1356 13.9528C17.095 13.9059 17.0511 13.861 17.0038 13.8184C16.9578 13.7771 16.91 13.7391 16.8606 13.7044C16.3014 13.312 15.526 13.3419 14.9966 13.8184C14.9493 13.861 14.9053 13.9059 14.8647 13.9528C13.8108 15.1118 12.3225 15.8334 10.667 15.8334C9.83856 15.8334 9.16699 16.5049 9.16699 17.3334C9.16699 18.1618 9.83856 18.8334 10.667 18.8334C12.6876 18.8334 14.5333 18.1334 16.0002 16.9803C17.4671 18.1334 19.3127 18.8334 21.3333 18.8334C22.1618 18.8334 22.8333 18.1618 22.8333 17.3334C22.8333 16.5049 22.1618 15.8334 21.3333 15.8334C19.6779 15.8334 18.1896 15.1118 17.1356 13.9528ZM20.8361 5.47825C22.8422 4.77339 25.3247 5.18604 26.9569 7.22178L26.959 7.22434L29.3297 10.1944L29.3311 10.1961C30.3036 11.4083 30.8333 12.9121 30.8333 14.4668V22.6668C30.8333 27.7561 25.4857 31.0534 20.9425 28.7817L20.9374 28.7792L19.5425 28.0751L19.5399 28.0738C17.6762 27.1407 16.5 25.2505 16.5 23.1601V21.3334C16.5 20.505 17.1716 19.8334 18 19.8334C18.8284 19.8334 19.5 20.505 19.5 21.3334V23.1601C19.5 24.1087 20.0294 24.9644 20.8842 25.3918L20.8893 25.3943L22.2842 26.0985L22.2867 26.0997C24.8363 27.3723 27.8333 25.5232 27.8333 22.6668V14.4668C27.8333 13.5955 27.5369 12.7533 26.9903 12.0725L26.9877 12.0692L24.6164 9.09843L24.6154 9.09718C23.8743 8.17398 22.784 7.97364 21.8306 8.30863C21.049 8.58324 20.1928 8.17225 19.9181 7.39067C19.6435 6.60908 20.0545 5.75286 20.8361 5.47825ZM7.38393 9.09843L7.38482 9.09733C8.12588 8.174 9.21628 7.97362 10.1698 8.30863C10.9514 8.58324 11.8076 8.17225 12.0822 7.39067C12.3568 6.60908 11.9458 5.75286 11.1642 5.47825C9.15809 4.77339 6.67564 5.18604 5.04338 7.22178L5.04133 7.22434L2.66922 10.1961C1.69672 11.4083 1.16699 12.9121 1.16699 14.4668V22.6668C1.16699 27.7561 6.51458 31.0534 11.0578 28.7817L11.0629 28.7792L12.4578 28.0751L12.4604 28.0738C14.3242 27.1407 15.5003 25.2506 15.5003 23.1601V21.3334C15.5003 20.505 14.8288 19.8334 14.0003 19.8334C13.1719 19.8334 12.5003 20.505 12.5003 21.3334V23.1601C12.5003 24.1087 11.9709 24.9644 11.1162 25.3918L11.1111 25.3944L9.71617 26.0985L9.71366 26.0997C7.16409 27.3723 4.16699 25.5232 4.16699 22.6668V14.4668C4.16699 13.5955 4.46342 12.7533 5.01002 12.0725L7.38393 9.09843Z" fill="#76C0AB"/>
</g>
<defs>
<clipPath id="clip0_289_3466">
<rect width="32" height="32" fill="white"/>
</clipPath>
</defs>
</svg>
