<svg width="32" height="32" viewBox="0 0 32 32" fill="none" xmlns="http://www.w3.org/2000/svg">
<g id="Icon=Psycho" clip-path="url(#clip0_289_3421)">
<path id="Union" fill-rule="evenodd" clip-rule="evenodd" d="M12.6663 2.5C10.1024 2.5 7.94262 4.26236 7.3324 6.6314C4.56463 7.23638 2.48633 9.70869 2.48633 12.6533C2.48633 13.8959 2.85837 15.0339 3.47328 15.9928C2.85253 16.9491 2.48633 18.1011 2.48633 19.3333C2.48633 22.2936 4.56706 24.7511 7.3323 25.3552C7.94284 27.74 10.0919 29.4867 12.6663 29.4867C13.9255 29.4867 15.0819 29.0578 15.9997 28.3541C16.9175 29.0578 18.0739 29.4867 19.333 29.4867C21.8969 29.4867 24.0567 27.7243 24.6669 25.3553C27.4347 24.7503 29.513 22.278 29.513 19.3333C29.513 18.0908 29.141 16.9527 28.526 15.9938C29.1468 15.0376 29.513 13.8856 29.513 12.6533C29.513 9.69303 27.4323 7.23559 24.667 6.63142C24.0565 4.24669 21.9074 2.5 19.333 2.5C18.0739 2.5 16.9175 2.92883 15.9997 3.63255C15.0819 2.92883 13.9255 2.5 12.6663 2.5ZM24.6804 6.68479C24.6811 6.68622 24.6808 6.68598 24.6801 6.68365L24.6783 6.68103L24.6804 6.68479ZM12.6663 5.5C11.4964 5.5 10.5007 6.31486 10.2318 7.40266C9.98378 8.45716 9.16818 9.32267 8.02717 9.55087C6.58124 9.84006 5.48633 11.1289 5.48633 12.6533C5.48633 13.2986 5.68146 13.8939 6.0245 14.4131L6.02656 14.4162C6.66181 15.3829 6.66181 16.6037 6.02655 17.5704L6.01758 17.5839C5.68506 18.0782 5.48633 18.6816 5.48633 19.3333C5.48633 20.8685 6.57865 22.1461 8.02717 22.4358L8.03441 22.4372L8.03441 22.4373C9.17159 22.6705 9.96469 23.5417 10.226 24.5608L10.2308 24.5799C10.4975 25.6802 11.4787 26.4867 12.6663 26.4867C13.2537 26.4867 13.7916 26.2813 14.2183 25.9388C14.3091 25.8654 14.4032 25.7984 14.5 25.7378V6.24885C14.4031 6.1882 14.309 6.12115 14.2181 6.0477C13.7915 5.70532 13.2537 5.5 12.6663 5.5ZM17.5 6.24843C17.5966 6.18789 17.6906 6.12098 17.7812 6.0477C18.2078 5.70532 18.7457 5.5 19.333 5.5C20.5206 5.5 21.5018 6.30644 21.7686 7.40673L21.7733 7.4259C22.0346 8.44497 22.8277 9.31614 23.9649 9.5494L23.9649 9.54942L23.9722 9.55087C25.4207 9.84057 26.513 11.1182 26.513 12.6533C26.513 13.305 26.3143 13.9084 25.9817 14.4027L25.9728 14.4162C25.3375 15.3829 25.3375 16.6037 25.9728 17.5704L25.9748 17.5736C26.3179 18.0927 26.513 18.688 26.513 19.3333C26.513 20.8577 25.4181 22.1466 23.9722 22.4358C22.8311 22.664 22.0155 23.5296 21.7675 24.5841C21.4985 25.6719 20.5029 26.4867 19.333 26.4867C18.7456 26.4867 18.2077 26.2813 17.781 25.9388C17.6904 25.8656 17.5966 25.7987 17.5 25.7382V6.24843ZM22.6667 20.1667C22.0284 20.1667 21.5 20.6952 21.5 21.3334C21.5 22.1618 20.8284 22.8334 20 22.8334C19.1716 22.8334 18.5 22.1618 18.5 21.3334C18.5 19.0383 20.3716 17.1667 22.6667 17.1667C23.4951 17.1667 24.1667 17.8383 24.1667 18.6667C24.1667 19.4952 23.4951 20.1667 22.6667 20.1667ZM13.4997 10.6667C13.4997 9.83832 12.8281 9.16675 11.9997 9.16675C11.1712 9.16675 10.4997 9.83832 10.4997 10.6667C10.4997 11.305 9.97125 11.8334 9.33301 11.8334C8.50458 11.8334 7.83301 12.505 7.83301 13.3334C7.83301 14.1618 8.50458 14.8334 9.33301 14.8334C11.6281 14.8334 13.4997 12.9618 13.4997 10.6667ZM7.83301 18.6667C7.83301 17.8383 8.50458 17.1667 9.33301 17.1667C11.6281 17.1667 13.4997 19.0383 13.4997 21.3334C13.4997 22.1618 12.8281 22.8334 11.9997 22.8334C11.1712 22.8334 10.4997 22.1618 10.4997 21.3334C10.4997 20.6952 9.97125 20.1667 9.33301 20.1667C8.50458 20.1667 7.83301 19.4952 7.83301 18.6667ZM21.5 10.6667C21.5 9.83832 20.8284 9.16675 20 9.16675C19.1716 9.16675 18.5 9.83832 18.5 10.6667C18.5 12.9618 20.3716 14.8334 22.6667 14.8334C23.4951 14.8334 24.1667 14.1618 24.1667 13.3334C24.1667 12.505 23.4951 11.8334 22.6667 11.8334C22.0284 11.8334 21.5 11.305 21.5 10.6667Z" fill="#76C0AB"/>
</g>
<defs>
<clipPath id="clip0_289_3421">
<rect width="32" height="32" fill="white"/>
</clipPath>
</defs>
</svg>
