<svg width="32" height="32" viewBox="0 0 32 32" fill="none" xmlns="http://www.w3.org/2000/svg">
<g id="Icon=Sang" clip-path="url(#clip0_289_3347)">
<path id="Union" fill-rule="evenodd" clip-rule="evenodd" d="M20.8729 2.99256C21.4587 2.40678 22.4085 2.40678 22.9943 2.99256L29.0609 9.05923C29.6467 9.64502 29.6467 10.5948 29.0609 11.1806C28.4751 11.7663 27.5254 11.7663 26.9396 11.1805L26.6813 10.9222L23.2664 14.3453L23.5043 14.5832C23.5121 14.5907 23.5199 14.5982 23.5275 14.6059C23.5352 14.6136 23.5428 14.6213 23.5503 14.6291L25.3936 16.4725C25.9794 17.0583 25.9794 18.008 25.3936 18.5938C24.8078 19.1796 23.8581 19.1796 23.2723 18.5938L22.4666 17.7881L14.8075 25.4472C13.1817 27.073 10.5387 27.073 8.91288 25.4472L8.86011 25.3945L5.06066 29.1939C4.47487 29.7797 3.52513 29.7797 2.93934 29.1939C2.35355 28.6081 2.35355 27.6584 2.93934 27.0726L6.73892 23.273C5.14048 21.6451 5.14958 19.0226 6.76621 17.4059L14.4253 9.74683L13.5389 8.86047C12.9532 8.27468 12.9532 7.32493 13.5389 6.73914C14.1247 6.15336 15.0745 6.15336 15.6603 6.73914L17.5843 8.66319C17.5921 8.67067 17.5999 8.67824 17.6075 8.68592C17.6152 8.6936 17.6228 8.70134 17.6303 8.70914L17.7799 8.8588L21.1989 5.43984L20.8729 5.11388C20.2871 4.5281 20.2871 3.57835 20.8729 2.99256ZM16.5466 11.8681L14.8746 13.5402L15.7671 14.4326C16.3529 15.0184 16.3529 15.9682 15.7671 16.554C15.1813 17.1397 14.2316 17.1397 13.6458 16.554L12.7533 15.6615L11.9547 16.4601L12.8472 17.3526C13.433 17.9383 13.433 18.8881 12.8472 19.4739C12.2614 20.0597 11.3116 20.0597 10.7259 19.4739L9.83337 18.5814L8.88754 19.5272C8.43332 19.9815 8.43332 20.725 8.88754 21.1793L9.8022 22.0939C9.84546 22.1285 9.88725 22.1659 9.92733 22.2059C9.96741 22.246 10.0047 22.2878 10.0393 22.3311L11.0342 23.3259C11.4884 23.7801 12.232 23.7801 12.6862 23.3259L20.3453 15.6668L16.8372 12.1588C16.7942 12.1243 16.7527 12.0871 16.7128 12.0473C16.6729 12.0074 16.6357 11.9658 16.6013 11.9228L16.5466 11.8681ZM23.3202 7.56116L24.56 8.8009L21.1451 12.224L19.9012 10.9801L23.3202 7.56116Z" fill="#76C0AB"/>
</g>
<defs>
<clipPath id="clip0_289_3347">
<rect width="32" height="32" fill="white"/>
</clipPath>
</defs>
</svg>
